<svg id="svg" xmlns="http://www.w3.org/2000/svg" xmlns:xlink="http://www.w3.org/1999/xlink" width="64" height="64" viewBox="0, 0, 400,395.43726235741445"><g id="svgg"><path id="path0" d="M219.600 3.128 C 138.135 20.247,60.998 84.608,79.359 120.140 C 91.795 144.206,182.166 179.468,231.405 179.468 C 241.763 179.468,267.959 99.182,272.383 53.881 C 277.423 2.258,267.796 -6.999,219.600 3.128 M351.321 69.862 C 323.056 78.460,282.342 119.854,255.724 167.056 C 247.591 181.479,246.917 180.499,265.779 181.677 C 320.608 185.102,381.015 170.294,395.084 149.978 C 400.429 142.261,401.349 107.179,396.566 93.488 C 389.695 73.820,370.780 63.943,351.321 69.862 M70.870 185.674 C 18.366 192.853,-0.000 213.098,-0.000 263.793 C 0.000 308.128,19.426 328.134,55.545 320.997 C 108.612 310.512,158.392 280.230,196.591 235.197 C 207.100 222.807,226.616 194.810,226.616 192.123 C 226.616 187.032,99.449 181.766,70.870 185.674 M237.686 204.081 C 220.274 245.783,211.339 299.452,219.348 314.234 C 234.279 341.794,345.993 289.316,354.996 250.513 C 360.077 228.615,322.272 207.324,258.555 196.199 C 253.118 195.250,247.243 194.131,245.501 193.713 C 242.782 193.061,241.672 194.533,237.686 204.081 M202.712 251.067 C 197.683 254.629,194.998 258.386,190.272 268.471 C 163.780 325.002,128.776 368.438,103.802 375.770 C 100.247 376.814,97.338 378.096,97.338 378.620 C 97.338 381.637,113.802 395.437,117.402 395.437 C 134.294 395.437,175.340 333.418,205.174 262.815 C 213.330 243.512,213.336 243.541,202.712 251.067 "></path></g></svg>